<?xml version="1.0" encoding="utf-8"?>
<!-- Generator: Adobe Illustrator 23.0.0, SVG Export Plug-In . SVG Version: 6.00 Build 0)  -->
<svg version="1.1" id="图层_1" xmlns="http://www.w3.org/2000/svg" xmlns:xlink="http://www.w3.org/1999/xlink" x="0px" y="0px"
	 viewBox="0 0 1024 1024" style="enable-background:new 0 0 1024 1024;" xml:space="preserve">
<style type="text/css">
	.st0{fill:url(#SVGID_1_);}
	.st1{fill:url(#SVGID_2_);}
	.st2{opacity:0.78;}
	.st3{fill:none;stroke:#3A8ADA;stroke-width:10;stroke-miterlimit:10;}
	.st4{fill:none;stroke:#3A8ADA;stroke-width:10;stroke-miterlimit:10;stroke-dasharray:90.3049,12.0407;}
	.st5{fill:none;stroke:#3A8ADA;stroke-width:10;stroke-miterlimit:10;stroke-dasharray:77.7299,10.364;}
	.st6{fill:#3A8ADA;}
	.st7{fill:#E6421C;}
	.st8{fill:#F3623C;}
	.st9{fill:#3A8ADA;stroke:#3A8ADA;stroke-width:10;stroke-miterlimit:10;}
</style>
<linearGradient id="SVGID_1_" gradientUnits="userSpaceOnUse" x1="512" y1="47" x2="512" y2="977">
	<stop  offset="0" style="stop-color:#A5CEFF"/>
	<stop  offset="1" style="stop-color:#E2F0FF"/>
</linearGradient>
<circle class="st0" cx="512" cy="512" r="465"/>
<linearGradient id="SVGID_2_" gradientUnits="userSpaceOnUse" x1="512" y1="47" x2="512" y2="976.8857">
	<stop  offset="0" style="stop-color:#88B8EC"/>
	<stop  offset="1" style="stop-color:#B6D1EC"/>
</linearGradient>
<path class="st1" d="M739.58,806.16l29.02,93.68c-64.8,42.96-140.98,70.11-223.06,75.96l-50.6-86.03L739.58,806.16z M408.77,931.58
	l-7.34,32.19c32.32,7.88,65.97,12.38,100.55,13.11l-28.39-51.5L408.77,931.58z M367.64,954.15l18.91-61.28l-169.19-21.12
	C261.42,907.88,312.24,936.08,367.64,954.15z M67.99,650.54c17.49,56.11,45.32,107.65,81.26,152.4l32.92-46.33l-29.42-119.13
	L67.99,650.54z M123.32,519.81l-76.22-17.42c-0.06,3.2-0.11,6.4-0.11,9.61c0,30.39,2.92,60.1,8.49,88.87l84.87-8.38L123.32,519.81z
	 M80.13,339.3c-15.93,39.79-26.51,82.3-30.87,126.63h60.68L80.13,339.3z M259.35,815.45l306.81-74.08l-29.42-76.11l-190.45,24.17
	l-18.02-84.56l118.67-12.39l26.65-97.45l21.35-15.58l-41.79-188.9l-99.89-26.03L182.16,241l-41.81,89.81L161.26,512L259.35,815.45z
	 M601.97,150.84L548,48.37C536.12,47.46,524.11,47,512,47c-42.86,0-84.37,5.81-123.78,16.66l-20.28,100.68l85.21,19.37
	L601.97,150.84z M459.32,209.68l-30.97-10.48L408.77,241l76.18,34.06l105.98-10.97L566.16,193L459.32,209.68z M676.1,355.58
	l-35.61-80.52l-145.55,23.23l48,82.06L676.1,355.58z M558.42,399.35l-26.32,14.82v51.76l34.06,62.29l158.6-45.68L676.1,380.35
	L558.42,399.35z M724.76,495.03L573.9,544.58l11.61,41.71l139.24-41.71V495.03z M761.26,563.54h-29.42l-140.9,41.34l-24.77,57.29
	l35.81,64.31l165.48-60.8L761.26,563.54z M484.95,869.65l269.45-99.1l13.05-81.12L445.39,806.16L484.95,869.65z M810.81,779.54
	L856,824.88c33.28-36.57,60.8-78.46,81.14-124.25l-47.37-36.92L810.81,779.54z M915.06,279.97l-190.3,32.26l42.69,87.13v104.87
	l43.35,116.13l52.2-34.06l-19.69-66.48l27.87-24.77l-37.16-40.74l20.13-16.65l49.55,35.61l18.58,147.1l37.17,18.58
	C970.88,598.59,977,556.01,977,512C977,427.49,954.46,348.26,915.06,279.97z M881.66,229.87C817.98,146.56,726.77,85.41,621.61,60
	l103.14,204.1L881.66,229.87z"/>
<g class="st2">
	<path class="st3" d="M791.34,414.18c0,28.59-23.17,51.76-51.76,51.76c-17.3,0-32.62-8.49-42.02-21.53
		c-6.13-8.51-9.74-18.95-9.74-30.23c0-28.59,23.17-51.76,51.76-51.76C768.17,362.42,791.34,385.59,791.34,414.18z"/>
	<circle class="st3" cx="739.58" cy="414.18" r="14.82"/>
</g>
<g>
	<g>
		<path class="st3" d="M687.82,437.65c0,0-15.21,3.64-33.33,16.78"/>
		<path class="st4" d="M645.1,461.95c-16.69,14.72-34.03,37.75-43.33,73.25c-9.61,36.7,1.98,79.41,13.9,109.67"/>
		<path class="st3" d="M617.94,650.45c8.42,20.29,16.36,33.72,16.36,33.72s-14.72,1.99-37.33,3.52"/>
		<path class="st5" d="M586.62,688.32c-52.75,2.87-136.79,2.03-186.13-26.16c-46.75-26.71-89.47-73.41-115.38-105.33"/>
		<path class="st3" d="M281.86,552.8c-14.17-17.73-22.5-29.99-22.5-29.99"/>
	</g>
</g>
<circle class="st6" cx="259.35" cy="519.81" r="24.77"/>
<g>
	<path class="st7" d="M259.35,12.26c-82.52,0-149.42,66.9-149.42,149.42s137.81,354.26,149.42,354.26
		c14.71,0,149.42-271.74,149.42-354.26S341.88,12.26,259.35,12.26z M259.35,209.68c-32.5,0-58.84-26.34-58.84-58.84
		S226.86,92,259.35,92s58.84,26.34,58.84,58.84S291.85,209.68,259.35,209.68z"/>
	<path class="st8" d="M275.34,13.11c54.78,22.15,93.44,75.84,93.44,138.57c0,68.26-92.18,275.78-132.36,330.26
		c11.84,17.41,20.4,34,22.94,34c14.71,0,149.42-271.74,149.42-354.26C408.77,84.56,350.34,21.09,275.34,13.11z"/>
</g>
<path class="st9" d="M638.74,740.16c1.84-16.61,2.44-33.31,1.8-49.95c15.32-6.32,31.43-10.67,47.97-12.89
	c1.91-0.26,1.66-3.25-0.26-2.99c-16.48,2.21-32.55,6.5-47.85,12.71c-0.77-16.18-2.71-32.31-5.83-48.26
	c-0.37-1.88-3.36-1.63-2.99,0.26c3.18,16.26,5.14,32.7,5.88,49.2c-12.19,5.18-23.88,11.58-34.86,19.17c-1.59,1.1,0.12,3.57,1.7,2.47
	c10.5-7.25,21.65-13.4,33.27-18.42c0.56,16.06-0.02,32.17-1.8,48.2C635.57,741.56,638.53,742.08,638.74,740.16z"/>
</svg>
